<!-- icon666.com - MILLIONS vector ICONS FREE --><svg id="Capa_1" enable-background="new 0 0 512.024 512.024" viewBox="0 0 512.024 512.024" xmlns="http://www.w3.org/2000/svg"><g><g fill="#7aa9bf"><path d="m360.033 305.342c-10.597-4.242-18.452-13.202-21.621-24.168-10.349-35.816-43.375-62.008-82.525-62.008s-72.176 26.192-82.525 62.008c-3.169 10.966-11.024 19.926-21.621 24.168-31.638 12.666-53.987 43.602-53.988 79.764-.001 46.806 38.198 85.419 85.002 85.898 19.265.197 37.077-5.954 51.489-16.486 12.914-9.438 30.374-9.438 43.288 0 14.411 10.532 32.224 16.683 51.489 16.486 46.804-.479 85.003-39.092 85.002-85.898-.003-36.162-22.352-67.098-53.99-79.764z" fill="#7aa9bf" style="fill: rgb(244, 246, 244);"></path><ellipse cx="176.413" cy="113.708" rx="56.898" ry="72.956" transform="matrix(.991 -.137 .137 .991 -13.944 25.304)" fill="#7aa9bf" style="fill: rgb(244, 246, 244);"></ellipse><ellipse cx="66.792" cy="231.638" rx="54.273" ry="69.263" transform="matrix(.922 -.387 .387 .922 -84.413 43.876)" fill="#7aa9bf" style="fill: rgb(244, 246, 244);"></ellipse><ellipse cx="335.611" cy="113.708" rx="72.956" ry="56.898" transform="matrix(.137 -.991 .991 .137 176.891 430.525)" fill="#7aa9bf" style="fill: rgb(244, 246, 244);"></ellipse><ellipse cx="445.232" cy="231.638" rx="69.263" ry="54.273" transform="matrix(.387 -.922 .922 .387 59.384 552.588)" fill="#7aa9bf" style="fill: rgb(244, 246, 244);"></ellipse></g><g><path d="m363.749 296.058c-7.638-3.058-13.371-9.495-15.729-17.661-5.655-19.57-17.73-37.188-34.002-49.608-16.82-12.838-36.921-19.624-58.131-19.624s-41.311 6.786-58.13 19.624c-16.271 12.42-28.348 30.038-34.003 49.608-2.358 8.166-8.092 14.603-15.729 17.66-36.612 14.657-60.271 49.611-60.271 89.048-.002 52.343 42.569 95.362 94.899 95.897 20.865.216 40.718-6.153 57.491-18.411 9.416-6.882 22.07-6.882 31.486 0 16.503 12.06 36.009 18.416 56.479 18.416.336 0 .677-.002 1.014-.005 52.329-.535 94.9-43.555 94.898-95.897-.001-39.436-23.659-74.39-60.272-89.047zm-34.832 164.946c-16.501.186-32.222-4.866-45.486-14.56-16.476-12.041-38.614-12.041-55.088 0-13.049 9.537-28.482 14.563-44.683 14.563-.268 0-.535-.001-.803-.004-41.415-.423-75.106-34.471-75.104-75.897.001-31.215 18.727-58.88 47.705-70.481 13.401-5.365 23.429-16.546 27.511-30.676 9.32-32.256 39.306-54.784 72.918-54.784 33.613 0 63.599 22.528 72.918 54.783 4.082 14.13 14.109 25.312 27.511 30.677 28.979 11.601 47.704 39.267 47.705 70.481.002 41.428-33.69 75.475-75.104 75.898z" fill="#000000"></path><path d="m134.876 175.698c13 13.474 28.915 20.703 45.309 20.703 1.753 0 3.512-.083 5.271-.249 15.265-1.444 29.449-9.346 39.939-22.25 14.008-17.231 20.431-41.529 17.622-66.664-2.408-21.544-11.311-41.261-25.068-55.52-14.39-14.915-32.353-22.179-50.58-20.454-15.266 1.443-29.45 9.345-39.94 22.25-14.008 17.231-20.431 41.529-17.621 66.664 2.408 21.544 11.31 41.261 25.068 55.52zm8.072-109.568c7.183-8.835 16.279-14.006 26.305-14.955 1.123-.106 2.241-.158 3.356-.158 24.553 0 46.835 25.363 50.532 58.443 2.218 19.84-2.617 38.729-13.264 51.826-7.183 8.835-16.278 14.006-26.304 14.955-1.123.106-2.24.158-3.355.158-24.553-.002-46.836-25.363-50.533-58.443-2.219-19.839 2.616-38.729 13.263-51.826z" fill="#000000"></path><path d="m130.773 264.597c4.979-18.176 3.306-38.711-4.712-57.824-8.019-19.113-21.498-34.695-37.955-43.877-17.256-9.628-35.716-11.173-51.979-4.349-16.263 6.823-28.095 21.076-33.315 40.133-4.979 18.176-3.307 38.711 4.712 57.824 13.464 32.092 41.785 52.347 69.266 52.346 7.031 0 14.009-1.327 20.667-4.12 16.263-6.824 28.094-21.076 33.316-40.133zm-54.283 24.316c-19.494-.002-40.265-15.695-50.522-40.147-6.297-15.008-7.67-30.919-3.866-44.802 3.562-13.001 11.291-22.581 21.765-26.975 4.147-1.74 8.572-2.603 13.138-2.603 6.962 0 14.248 2.008 21.357 5.975 12.57 7.014 22.961 19.141 29.257 34.149 6.297 15.008 7.67 30.919 3.866 44.802-3.562 13.001-11.291 22.581-21.765 26.975-4.245 1.78-8.701 2.627-13.23 2.626z" fill="#000000"></path><path d="m289.003 74.298c4.457 3.264 10.714 2.297 13.977-2.158 10.765-14.697 25.265-22.337 39.792-20.964 10.025.948 19.122 6.119 26.305 14.955 10.646 13.097 15.481 31.986 13.263 51.826-3.865 34.582-28.025 60.732-53.889 58.285-14.334-1.355-26.707-11.375-33.945-27.491-2.263-5.038-8.182-7.289-13.22-5.025-5.038 2.263-7.287 8.181-5.024 13.219 10.119 22.528 28.925 37.186 50.307 39.208 1.761.167 3.518.249 5.271.249 16.393 0 32.31-7.23 45.309-20.703 13.758-14.259 22.66-33.976 25.068-55.52 2.81-25.135-3.613-49.433-17.621-66.664-10.49-12.905-24.675-20.807-39.94-22.25-21.378-2.022-43.001 8.839-57.81 29.057-3.265 4.455-2.298 10.713 2.157 13.976z" fill="#000000"></path><path d="m509.212 198.679c-5.221-19.057-17.053-33.31-33.316-40.133-16.262-6.823-34.723-5.279-51.978 4.349-16.457 9.182-29.937 24.765-37.955 43.877s-9.691 39.648-4.712 57.824c5.222 19.057 17.053 33.31 33.315 40.132 6.661 2.794 13.635 4.121 20.668 4.12 27.479-.002 55.803-20.257 69.266-52.346 8.019-19.112 9.692-39.647 4.712-57.823zm-23.155 50.087c-12.641 30.133-41.241 46.965-63.752 37.521-10.474-4.394-18.202-13.974-21.765-26.975-3.804-13.883-2.431-29.794 3.866-44.802 6.296-15.008 16.687-27.136 29.257-34.149 7.11-3.967 14.395-5.975 21.357-5.975 4.564 0 8.991.863 13.138 2.603 10.474 4.394 18.203 13.974 21.765 26.975 3.804 13.883 2.431 29.793-3.866 44.802z" fill="#000000"></path><circle cx="279.031" cy="108.323" r="10" fill="#000000"></circle></g></g></svg>