<!-- icon666.com - MILLIONS vector ICONS FREE --><svg viewBox="-67 0 512 512.002" xmlns="http://www.w3.org/2000/svg"><path d="m316.078125 307.890625 12.503906-153.988281h11.761719c4.410156 0 8.597656-1.941406 11.449219-5.308594 2.851562-3.363281 4.074219-7.8125 3.347656-12.164062l-6.382813-38.1875c-3.515624-21.027344-21.539062-36.292969-42.859374-36.292969h-53.597657v-9.582031c0-28.875-23.539062-52.367188-52.476562-52.367188h-44.300781c-28.9375 0-52.476563 23.492188-52.476563 52.371094v9.582031h-53.597656c-21.320313 0-39.347657 15.261719-42.859375 36.289063l-6.382813 38.1875c-.726562 4.351562.496094 8.800781 3.347657 12.167968 2.851562 3.367188 7.035156 5.304688 11.445312 5.304688h11.761719l21.234375 261.480468c1.199218 14.777344 7.878906 28.449219 18.804687 38.5 10.914063 10.039063 25.101563 15.566407 39.945313 15.566407h77.726562c19.640625 25.832031 50.730469 42.554687 85.667969 42.554687 59.253906 0 107.464844-48.09375 107.464844-107.207031 0-42.730469-25.1875-79.691406-61.527344-96.90625zm-183.03125-255.519531c0-12.335938 10.082031-22.371094 22.476563-22.371094h44.300781c12.394531 0 22.476562 10.035156 22.476562 22.371094v9.582031h-89.253906zm-100.328125 71.53125 3.460938-20.714844c1.085937-6.511719 6.667968-11.234375 13.269531-11.234375h256.449219c6.601562 0 12.183593 4.726563 13.269531 11.234375l3.464843 20.714844zm135.71875 315.542968h-61.691406c-14.972656 0-27.640625-11.636718-28.847656-26.492187l-21.035157-259.050781h241.621094l-11.769531 144.960937c-5.40625-.839843-10.941406-1.277343-16.574219-1.277343-59.257813 0-107.464844 48.09375-107.464844 107.207031 0 12.121093 2.027344 23.777343 5.761719 34.652343zm101.699219 42.554688c-42.710938 0-77.464844-34.632812-77.464844-77.207031 0-42.570313 34.753906-77.207031 77.464844-77.207031 42.714843 0 77.46875 34.636718 77.46875 77.207031 0 42.574219-34.753907 77.207031-77.46875 77.207031zm0 0" fill="#000000" style="fill: rgb(237, 12, 12);"></path><path d="m310.929688 364.117188c-5.851563-5.863282-15.347657-5.878907-21.214844-.03125l-19.578125 19.523437-19.578125-19.523437c-5.867188-5.847657-15.363282-5.835938-21.210938.03125-5.851562 5.867187-5.835937 15.363281.027344 21.210937l19.519531 19.464844-19.519531 19.464843c-5.863281 5.847657-5.878906 15.34375-.027344 21.210938 2.929688 2.9375 6.773438 4.410156 10.621094 4.410156 3.832031 0 7.664062-1.460937 10.589844-4.378906l19.578125-19.523438 19.578125 19.523438c2.929687 2.917969 6.761718 4.378906 10.59375 4.378906 3.847656 0 7.691406-1.472656 10.621094-4.410156 5.851562-5.867188 5.835937-15.363281-.03125-21.210938l-19.515626-19.464843 19.515626-19.464844c5.867187-5.847656 5.882812-15.34375.03125-21.210937zm0 0" fill="#000000" style="fill: rgb(237, 12, 12);"></path></svg>