<?xml version="1.0" standalone="no"?>
<!DOCTYPE svg PUBLIC "-//W3C//DTD SVG 20010904//EN"
 "http://www.w3.org/TR/2001/REC-SVG-20010904/DTD/svg10.dtd">
<svg version="1.0" xmlns="http://www.w3.org/2000/svg"
 width="1280.000000pt" height="677.000000pt" viewBox="0 0 1280.000000 677.000000"
 preserveAspectRatio="xMidYMid meet">
<g transform="translate(0.000000,677.000000) scale(0.100000,-0.100000)"
fill="#000000" stroke="none">
<path d="M1083 6563 c-7 -2 -13 -16 -13 -29 0 -14 -6 -37 -14 -52 -8 -15 -21
-68 -30 -119 -34 -197 -114 -352 -248 -479 -113 -107 -234 -164 -396 -185 -48
-6 -90 -16 -94 -23 -22 -32 -7 -69 51 -132 77 -82 103 -146 109 -275 6 -144
-24 -234 -120 -357 -66 -85 -74 -108 -58 -184 10 -46 20 -65 42 -81 81 -60
138 -197 138 -332 0 -133 -40 -235 -140 -355 -46 -55 -55 -93 -39 -165 9 -42
20 -61 44 -80 47 -35 93 -109 117 -188 16 -55 19 -86 16 -165 -6 -124 -31
-189 -114 -297 -36 -48 -66 -98 -69 -117 -11 -58 12 -118 66 -175 28 -29 64
-83 82 -120 31 -65 32 -73 32 -193 -1 -106 -4 -133 -23 -179 -24 -58 -66 -123
-119 -185 -66 -78 -54 -166 36 -261 84 -90 106 -154 106 -310 0 -114 -2 -123
-32 -187 -18 -38 -55 -102 -83 -143 -45 -68 -50 -80 -44 -114 l6 -39 72 -6
c147 -15 281 -65 393 -150 145 -110 232 -265 269 -480 9 -50 21 -100 27 -111
6 -11 14 -42 17 -70 l5 -50 5421 -3 5421 -2 6 117 c7 145 23 210 84 333 40 81
61 109 143 190 72 72 114 105 175 137 96 50 203 81 308 90 l77 6 0 42 c0 35
-4 44 -26 56 -43 22 -115 110 -146 176 -88 186 -45 394 109 531 l63 57 0 70 0
70 -63 57 c-107 95 -165 234 -154 367 10 126 71 243 165 316 l51 40 0 74 1 74
-62 57 c-76 70 -122 143 -144 230 -42 164 26 360 160 459 l46 35 0 76 0 76
-40 30 c-56 40 -124 132 -150 202 -65 174 -20 355 121 485 l69 65 -1 73 0 74
-50 38 c-89 68 -156 195 -166 317 -11 136 34 248 144 357 58 57 73 78 73 102
0 28 -3 30 -47 36 -253 32 -438 127 -571 292 -109 136 -161 277 -169 459 l-6
121 -150 6 c-174 8 -10666 8 -10684 0z"/>
</g>
</svg>
