<?xml version="1.0" encoding="utf-8"?><svg version="1.1" id="Layer_1" xmlns="http://www.w3.org/2000/svg" xmlns:xlink="http://www.w3.org/1999/xlink" x="0px" y="0px" viewBox="0 0 122.88 122.88" style="enable-background:new 0 0 122.88 122.88" xml:space="preserve"><style type="text/css"><![CDATA[
	.st0{fill-rule:evenodd;clip-rule:evenodd;fill:#E5273A;}
	.st1{fill:#FFFFFF;}
	.st2{fill:#CE2334;}
	.st3{fill-rule:evenodd;clip-rule:evenodd;fill:#CE2334;}
]]></style><g><polygon class="st3" points="19.44,50.16 8.22,30.72 30.72,30.72 30.72,8.13 50.16,19.44 61.44,0 72.72,19.44 92.16,8.13 92.16,30.72 114.75,30.72 103.44,50.16 122.88,61.44 103.44,72.72 114.75,92.16 92.16,92.16 92.16,114.66 72.72,103.44 61.44,122.88 50.16,103.44 30.72,114.66 30.72,92.16 8.22,92.16 19.44,72.72 0,61.44 19.44,50.16"/><polygon class="st0" points="25.76,51.86 16.23,35.35 35.35,35.35 35.35,16.16 51.86,25.76 61.44,9.25 71.02,25.76 87.54,16.16 87.54,35.35 106.72,35.35 97.12,51.86 113.63,61.44 97.12,71.02 106.72,87.53 87.54,87.53 87.54,106.65 71.02,97.12 61.44,113.63 51.86,97.12 35.35,106.65 35.35,87.53 16.23,87.53 25.76,71.02 9.25,61.44 25.76,51.86"/><path class="st2" d="M36.78,67.88c-1-0.1-2.02-0.33-3.07-0.68c-1.11-0.37-2.18-0.85-3.21-1.45c-0.1-0.06-0.2-0.12-0.3-0.18 c-1.06-0.64-1.99-1.32-2.78-2.05c-0.96-0.88-1.76-1.84-2.41-2.89c-0.07-0.12-0.14-0.23-0.2-0.35c-0.59-1.01-1-2.02-1.25-3.03 c-0.32-1.29-0.37-2.56-0.16-3.83l0-0.02l0,0c0.17-0.98,0.48-2.03,0.93-3.12c0.39-0.94,0.91-1.96,1.55-3.07 c0.05-0.09,0.1-0.17,0.16-0.26l0.76-1.31c0.69-1.21,1.82-2.01,3.08-2.33c0-0.59,0.04-1.19,0.13-1.79c0.12-0.84,0.36-1.74,0.73-2.7 c0.32-0.83,0.72-1.67,1.22-2.53c0.71-1.22,1.39-2.23,2.05-3.02c0.85-1.02,1.76-1.82,2.74-2.41l-0.01-0.01 c0.99-0.59,2.05-1.01,3.18-1.23c1.01-0.2,2.1-0.25,3.28-0.14c1.09,0.1,2.17,0.34,3.25,0.72c0.98,0.34,1.99,0.81,3.02,1.41 l0.01,0.01l0.01-0.01c1.07,0.62,2.04,1.3,2.91,2.05c0.92,0.79,1.71,1.65,2.36,2.57l0.02,0.02l0,0c0.55,0.78,0.99,1.57,1.32,2.36 c1.48-0.72,3.26-0.68,4.73,0.2l9.05,5.23c0.92,0.54,1.61,1.32,2.02,2.22c0.98-0.09,2,0.11,2.92,0.64l6.31,3.64 c1.08,0.62,1.83,1.58,2.21,2.67c1.13-0.22,2.33-0.05,3.4,0.57l10.51,6.07c2.37,1.36,3.19,4.39,1.83,6.76l-2.79,4.84 c-0.54,0.95-1.35,1.64-2.28,2.06c-0.01,0.83-0.22,1.66-0.67,2.43l-2.65,4.6c-0.47,0.81-1.14,1.44-1.9,1.86 c0.37,1.26,0.24,2.65-0.47,3.88c-0.05,0.09-0.1,0.17-0.16,0.25l-2.63,4.57c-1.36,2.37-4.39,3.19-6.76,1.83l-0.02-0.01l0,0.01 L67.8,86.59c-0.31-0.18-0.59-0.39-0.84-0.62c-0.33-0.11-0.66-0.25-0.97-0.43c-0.09-0.05-0.17-0.1-0.25-0.16l-9.84-5.68 c-0.22-0.13-0.43-0.27-0.63-0.43l-0.07-0.02c-0.35-0.14-0.68-0.31-0.98-0.52l-6.12-3.53c-0.53-0.3-0.98-0.69-1.34-1.13 c-0.56-0.1-1.1-0.29-1.61-0.58l0,0l-6.52-3.77C37.83,69.28,37.21,68.63,36.78,67.88L36.78,67.88z"/><path class="st1" d="M49.5,47.78l-5.85-3.38l1.03-1.79c0.48-0.84,0.72-1.42,0.7-1.73c-0.02-0.32-0.2-0.57-0.54-0.77 c-0.38-0.22-0.75-0.23-1.13-0.03c-0.37,0.19-0.74,0.6-1.1,1.23c-0.47,0.81-0.7,1.48-0.72,2.01c-0.02,0.53,0.29,1.36,0.93,2.51 c1.83,3.28,2.8,5.67,2.91,7.16c0.11,1.49-0.52,3.42-1.89,5.79c-1,1.73-1.93,2.88-2.81,3.47c-0.88,0.58-2.05,0.82-3.52,0.7 c-1.48-0.11-2.98-0.61-4.51-1.5c-1.69-0.97-2.93-2.12-3.76-3.45c-0.82-1.33-1.13-2.59-0.93-3.79c0.2-1.2,0.83-2.71,1.88-4.53 l0.92-1.59l5.85,3.38l-1.7,2.95c-0.53,0.91-0.78,1.54-0.77,1.89c0.01,0.35,0.23,0.65,0.65,0.89c0.42,0.24,0.82,0.26,1.22,0.04 c0.39-0.21,0.78-0.64,1.15-1.28c0.82-1.43,1.17-2.47,1.03-3.13c-0.15-0.67-0.71-1.97-1.67-3.91c-0.96-1.94-1.56-3.29-1.8-4.05 c-0.23-0.76-0.28-1.66-0.14-2.67c0.15-1.02,0.59-2.17,1.33-3.46c1.07-1.85,2.09-3.08,3.06-3.66c0.97-0.58,2.12-0.81,3.45-0.69 c1.34,0.13,2.75,0.62,4.24,1.48c1.63,0.94,2.87,2.01,3.72,3.2c0.84,1.19,1.22,2.3,1.13,3.32c-0.09,1.02-0.69,2.49-1.8,4.41 L49.5,47.78L49.5,47.78z M67.4,48.32L57.02,74.63l-6.44-3.72l2.17-4.55l-2.27-1.31l-2.85,4.15l-6.52-3.76l17.19-22.39L67.4,48.32 L67.4,48.32z M55.06,61.98c1.28-2.92,2.93-6.51,4.94-10.76c-3.31,4.3-5.67,7.47-7.08,9.52L55.06,61.98L55.06,61.98z M78.67,54.82 l-11.2,19.39l3.8,2.19l-2.79,4.84l-10.11-5.84l13.99-24.24L78.67,54.82L78.67,54.82z M84.29,58.06l10.51,6.07L92,68.97l-4.2-2.42 l-2.67,4.63l3.92,2.26l-2.65,4.6l-3.92-2.26L79.4,81.1l4.63,2.67l-2.79,4.84L70.29,82.3L84.29,58.06L84.29,58.06z"/></g></svg>